/* XPM */
static char * icon_xpm[] = {
"32 32 41 1",
" 	c None",
".	c #FFFFFF",
"+	c #FFF8F8",
"@	c #000000",
"#	c #FFCB4B",
"$	c #FFF2F2",
"%	c #FFFE9A",
"&	c #FFBB29",
"*	c #A07800",
"=	c #FFFCFC",
"-	c #987200",
";	c #000010",
">	c #FFCE56",
",	c #754A00",
"'	c #804000",
")	c #100000",
"!	c #1E0000",
"~	c #D5B6B6",
"{	c #FFD2C0",
"]	c #7D6A6A",
"^	c #A89090",
"/	c #FFFBFB",
"(	c #FFCCB8",
"_	c #534646",
":	c #A48787",
"<	c #FFD1D1",
"[	c #CFA4A4",
"}	c #4E4040",
"|	c #715959",
"1	c #9E7E7E",
"2	c #FFC4AF",
"3	c #010000",
"4	c #493A3A",
"5	c #160000",
"6	c #1B0000",
"7	c #FFCF6D",
"8	c #0B0000",
"9	c #603000",
"0	c #402000",
"a	c #202000",
"b	c #301800",
"                            .+@ ",
"           @#             ..+$@ ",
"  @#%     @#&           ...+$@@ ",
"  @&#%%  @##           ...+$$@@ ",
"   @ #%%@##*&         ...+$$@@  ",
"   @&&#%%## &        =..+$$$@   ",
"    @* #%#-&-       ==.+$$$@@   ",
"    @;&&##&#####   ===+$$$@@    ",
"    @#### ########>==+$$$@@     ",
"    ###,,&',,,,,,@@=+$$$@@      ",
"   ##,,,' ,,, @@@@=+$$$@@       ",
"  #,,,,, &,,   @==+$$$@@        ",
" @@@@@@@&-,)! ~{=+$$$@@         ",
"      @@&-,))]^/($$$@@          ",
"       )-&,@@_]:<[$@@           ",
"        )&,@=@}|123@            ",
"     #& ) @@=+@4|56             ",
"     &&@@7@=+$$@8)              ",
"     &&@@@@+$$$@@)!             ",
"     &&==@+$$$@@ @)!            ",
"     &&&=+$$$@@   @)!           ",
"      &&=$$$@@     @)!          ",
"     '&&&&$@@@      @)!         ",
"    ')9 &&&&&&@      @)!        ",
"   099a0@&&-& @       @)!  @    ",
"  '9a00@@@@)@)@        @)!@@    ",
" #a90a@@                @@@     ",
"##&ab@@                         ",
"#&&&@@                          ",
"@&-@@                           ",
" @@@                            ",
"                                "};
